<mxfile host="app.diagrams.net" modified="2024-05-23T15:42:53.373Z" agent="Mozilla/5.0 (Windows NT 10.0; Win64; x64) AppleWebKit/537.36 (KHTML, like Gecko) Chrome/125.0.0.0 Safari/537.36" etag="RGpEj_k316pD47R8FBSo" version="24.4.6" type="github">
  <diagram name="Page-1" id="WMgal4bpV5tWj9d_9T5l">
    <mxGraphModel dx="710" dy="771" grid="1" gridSize="10" guides="1" tooltips="1" connect="1" arrows="1" fold="1" page="1" pageScale="1" pageWidth="850" pageHeight="1100" math="0" shadow="0">
      <root>
        <mxCell id="0" />
        <mxCell id="1" parent="0" />
        <mxCell id="1pWG-Af98470HQM6SrxR-1" value="" style="rounded=1;whiteSpace=wrap;html=1;" vertex="1" parent="1">
          <mxGeometry x="100" y="220" width="120" height="60" as="geometry" />
        </mxCell>
        <mxCell id="1pWG-Af98470HQM6SrxR-2" value="" style="rounded=1;whiteSpace=wrap;html=1;" vertex="1" parent="1">
          <mxGeometry x="305" y="220" width="120" height="60" as="geometry" />
        </mxCell>
        <mxCell id="1pWG-Af98470HQM6SrxR-3" value="" style="rounded=1;whiteSpace=wrap;html=1;" vertex="1" parent="1">
          <mxGeometry x="500" y="220" width="120" height="60" as="geometry" />
        </mxCell>
        <mxCell id="1pWG-Af98470HQM6SrxR-4" value="" style="shape=process;whiteSpace=wrap;html=1;backgroundOutline=1;" vertex="1" parent="1">
          <mxGeometry x="100" y="340" width="120" height="60" as="geometry" />
        </mxCell>
        <mxCell id="1pWG-Af98470HQM6SrxR-5" value="" style="shape=process;whiteSpace=wrap;html=1;backgroundOutline=1;" vertex="1" parent="1">
          <mxGeometry x="300" y="340" width="120" height="60" as="geometry" />
        </mxCell>
        <mxCell id="1pWG-Af98470HQM6SrxR-6" value="" style="shape=process;whiteSpace=wrap;html=1;backgroundOutline=1;" vertex="1" parent="1">
          <mxGeometry x="500" y="340" width="120" height="60" as="geometry" />
        </mxCell>
      </root>
    </mxGraphModel>
  </diagram>
</mxfile>
